<svg width="32" height="46" viewBox="0 0 32 46" fill="none" xmlns="http://www.w3.org/2000/svg">
<g id="Group 142">
<path id="Vector" d="M30.8297 22.5667C30.6782 22.6789 30.4216 22.895 30.1499 23.065C23.5313 27.123 16.9104 31.1777 10.2867 35.2159C9.94342 35.4251 9.55357 35.6426 9.19025 35.612C8.45878 35.5442 8.14437 34.4763 8.49942 33.3348C9.35223 30.5856 10.1978 27.8267 11.1028 25.1091C11.4509 24.0613 11.5053 23.2444 10.9859 22.2104C9.73043 19.7093 8.58914 17.0972 7.37699 14.5511C7.066 13.9007 6.85325 13.1566 7.27315 12.6441C7.58421 12.269 8.18248 12.0609 8.58602 12.2037C15.732 14.7377 22.8678 17.3356 30.0082 19.9266C31.1318 20.3346 31.5343 21.4629 30.8275 22.5701L30.8297 22.5667Z" fill="#E38238"/>
</g>
</svg>
